<svg id="Layer_1" data-name="Layer 1" xmlns="http://www.w3.org/2000/svg" width="92" height="92" viewBox="0 0 92 92">
  <defs>
    <style>
      .cls-1 {
        opacity: 0.4;
      }

      .cls-2, .cls-3 {
        fill: #fff;
      }

      .cls-2 {
        fill-rule: evenodd;
      }
    </style>
  </defs>
  <g class="cls-1">
    <path class="cls-2" d="M297.5,366.17c-.23.7-5.74,17-5.74,17L306.5,373l14.5,10.2S316,367,315.74,366.38l14.17-10.67H312.19c-.22-.68-5.77-17.07-5.77-17.07l-5.55,17.12h-18Zm-3.58,14,12.53-16.86-7.56,2.34-12.33-8.8,19.88,6.46h0l-4.74-6.61,4.74-14.49v21.1h0l5.09-6.39h14.59l-19.68,6.39,7.89,2.54,4.49,14.24L306.45,363.3v8.32Z" transform="translate(-260.44 -317.36)"/>
    <path class="cls-3" d="M286.38,386.1a.66.66,0,0,0-.88,0,76.37,76.37,0,0,0-7.9,8.94.64.64,0,0,0,.16.86.62.62,0,0,0,.87,0,36.87,36.87,0,0,0,4.13-4.32,36.13,36.13,0,0,0,3.77-4.62A.66.66,0,0,0,286.38,386.1Zm34.36,4.11a.7.7,0,0,0-1.25.55,77.15,77.15,0,0,0,4.83,10.91.62.62,0,0,0,.84.22.64.64,0,0,0,.41-.77,38.07,38.07,0,0,0-2.21-5.56A36.39,36.39,0,0,0,320.74,390.21Zm-13.07,6c0-2.21-.12-3.05-1.65-3h0l.1,6.08h.09C307.65,399.23,307.71,398.32,307.67,396.2Zm-38.19-46.91c-2-.84-2.88-1-3.46.4l0,.13,6.27,2.59.06-.15C272.9,350.8,271.93,350.3,269.48,349.29Zm53.38-17.67c1.37.69,1.86-.12,2.85-2.08s1.35-2.84-.06-3.55l0,0-2.83,5.61Zm-36.47-2.7,2.26,6.64,2-1.1Zm20.05-11.56a46,46,0,1,0,46,46A46,46,0,0,0,306.44,317.36ZM339.89,337l.33-.24,2.42,3.3-.33.24-.65-.88L331.24,347l.1.14c1,1.34,2.36,1,4.87-.72l.24.33-3.85,2.81-3.46-4.74.32-.24.51.69,10.43-7.62Zm-6-6.36,2.91,2.53-.27.31-.64-.56-8.46,9.76.64.56-.26.31L324.87,341l.27-.31.64.56,8.46-9.76-.64-.56Zm-10.77-6.37,2.82,1.42c2.06,1,2.7,2.95,1.79,4.76a3.41,3.41,0,0,1-4.12,1.74c1.66,1.21,1.77,2.35.74,4.38l-.8,1.61c-.36.71-.48,1.06-.25,1.18s.58-.29,1-1.2c0-.08.09-.16.13-.25l.38.2-.16.31c-.63,1.24-1.3,1.59-2.32,1.07a1.35,1.35,0,0,1-.76-1.63,24.73,24.73,0,0,1,1.57-3.58c.57-1.21.62-1.72-.39-2.23l-.18-.09-2.8,5.56.76.38-.18.37-3.44-1.74.18-.36.76.38L323.68,325l-.76-.39Zm-12.32,4c1-4.41,3.35-6.75,5.28-6.3a2.2,2.2,0,0,1,1.41,1.17l.61-.69.4.09-1.18,5.14-.39-.09c.44-3.26.17-5-1-5.26s-1.73,1.6-2.69,5.79l-.42,1.83c-.81,3.58-1.11,5.2-.11,5.43.59.13,1-.33,1.21-1.42l1-4.21-.85-.19.09-.4,3.78.86-.09.4-.83-.19-1.41,6.16-.41-.09-.6-1.47a1.8,1.8,0,0,1-2,.9C310.9,335.31,309.84,332.37,310.78,328.23Zm21.57,35.29a26.06,26.06,0,1,1-26.06-26.06A26.06,26.06,0,0,1,332.35,363.52Zm-36-41.15,5.08,7.38-1.33-6c-.27-1.2-.75-1.64-1.63-1.44l-.09-.4,2.8-.63.09.4h-.05c-.83.19-.87.63-.62,1.76l2.55,11.47-.4.09-7-10.1,1.94,8.71c.3,1.36.75,1.86,1.87,1.69l.09.4-3,.67-.09-.4c.88-.29.89-.84.61-2.13l-2.38-10.71-.87.19-.09-.4Zm-9.8,3.64L295,336.63l.54-.29.19.36-3.23,1.74-.19-.36.85-.45L291,334.84,288.8,336l.64,1.91c.07.15.16.36.28.58.28.53.63.59,1.31.24l.2.36-2.48,1.34-.2-.36c.71-.57.49-1.12.14-2.24l-3.54-11.07ZM277,332.48a1.71,1.71,0,0,1,1.67-.41l-.28-.89.31-.29,3.21,3.36-.32.31c-2-1.93-3.61-2.47-4.28-1.83-1,.91.52,2.65,3.79,6.08,2.88,3,4.41,4.38,5.37,3.46.79-.76.24-2.25-1.75-4.34l-.18-.19.37-.36.09.1c2.33,2.44,2.93,4.14,1.73,5.28a2.72,2.72,0,0,1-2.09.56,8.36,8.36,0,0,1-5.2-2.85,12,12,0,0,1-2.8-4.62C276.15,334.31,276.29,333.16,277,332.48Zm-5.38,6.21,3.61,2.37-.2.31c-2.35-1.39-3.56-1.74-4.38-.5,0,.07-.08.16-.13.24l5.09,3.35,0-.06c.42-.63-.13-1.26-1.56-2.21l.2-.3,4.58,3-.2.31c-1.51-.95-2.22-1.28-2.65-.63l-.07.11,5.35,3.52a.71.71,0,0,0,.1-.14c.91-1.39.08-2.56-2.38-4.31l.23-.34,4,2.62L280,351l-.34-.23.47-.71-10.79-7.1-.46.71-.34-.23Zm-1.07,36.58a2.66,2.66,0,1,1,2.66-2.66A2.65,2.65,0,0,1,270.55,375.27Zm-5.4-23.46-.33.79-.38-.16,1.28-3.1c.86-2.07,2.61-2.73,4.81-1.83a3.56,3.56,0,0,1,2.08,5v0l5.31,2.19.38-.94.38.15-1.53,3.72-.38-.16.33-.78Zm14.08,44.62a1.66,1.66,0,0,1-2.21-1.95,10,10,0,0,1,2.64-5.62,9.89,9.89,0,0,1,5.24-3.3,2,2,0,0,1,1.71.29,2,2,0,0,1,.49,1.66,9.84,9.84,0,0,1-2.62,5.6A10,10,0,0,1,279.23,396.43Zm13.7-3.74-7.23,9.05-.57-.3,3.78-12.83-.46-.24.18-.35,2.92,1.53-.18.35-.73-.38-2.49,8.32,4.11-5.2a6.84,6.84,0,0,0,.61-.89c.29-.54.15-.94-.47-1.3l.19-.35,2.33,1.22-.18.35C294.13,391.37,293.68,391.75,292.93,392.69Zm7.92,4.09-.35-.07c.37-2.61.24-3.83-1.17-4.1a2.48,2.48,0,0,0-.27,0l-1.11,5.8H298c.72.14,1.08-.58,1.39-2.22l.35.07-1,5.22-.35-.07c.29-1.7.33-2.46-.41-2.6l-.13,0-1.17,6.1.16,0c1.59.31,2.32-.87,3-3.72l.39.08-.87,4.52-5.59-1.07.08-.39.81.16L297,392.19l-.81-.16.07-.39,5.36,1Zm8.41,9.44a1.3,1.3,0,0,1-1.38-1.05,21.32,21.32,0,0,1-.27-3.78c-.05-1.29-.24-1.76-1.33-1.74h-.2l.1,6H307v.39l-3.73.06v-.39h.83l-.21-12.51-.83,0v-.4l3.05-.05a3.35,3.35,0,0,1,.93,6.62c2,.29,2.57,1.22,2.61,3.42l0,1.74c0,.77.07,1.13.32,1.13s.37-.51.35-1.5v-.27h.41c0,.11,0,.23,0,.34C310.79,405.6,310.37,406.2,309.26,406.22Zm5.05-1-.08-.38,1-.21-2.58-12.24-.05,0c-1.11.23-1.26,1.42-.78,3.77l-.35.08-.76-3.86,5.76-1.21.86,3.83-.35.08c-.51-2.35-1.13-3.38-2.24-3.14h0l2.58,12.24,1-.21.08.39Zm12-4.47a1.66,1.66,0,0,1-2.69,1.19,11.08,11.08,0,0,1-4.82-10.88,2,2,0,0,1,1-1.44,2,2,0,0,1,1.72.25,11,11,0,0,1,4.81,10.88Zm9.5-5.65-10.5-5.63,5.48,6.67c.86,1,1.47,1.28,2.36.64l.25.3L331.06,399l-.26-.31c.64-.64.41-1.12-.4-2.1l-6.74-8.21L323,389l-.25-.3,2-1.63,7.61,4.15-3.77-4.59c-.75-.91-1.36-1.09-2-.53l-.25-.3,2.15-1.77.25.31,0,0c-.64.52-.47.92.23,1.78l7.22,8.79Zm4.9-19.87a2.66,2.66,0,1,1,2.66-2.66A2.66,2.66,0,0,1,340.68,375.27Zm6.2-26.61L335,353.73l.06.15c.66,1.53,2.09,1.49,4.91.4l.16.38-4.38,1.87-2.31-5.4.38-.17.33.79L346,346.68l-.33-.78.38-.16,1.6,3.76-.37.16Z" transform="translate(-260.44 -317.36)"/>
  </g>
</svg>
