<svg id="Capa_1" data-name="Capa 1" xmlns="http://www.w3.org/2000/svg" width="122.04" height="34.02" viewBox="0 0 122.04 34.02">
  <defs>
    <style>
      .cls-1, .cls-3 {
        fill: #fff;
      }

      .cls-1, .cls-2 {
        opacity: 0.4;
      }
    </style>
  </defs>
  <path class="cls-1" d="M137.56,119.35a17,17,0,1,0,17,17A17,17,0,0,0,137.56,119.35Zm6.79,14.36c0,.15,0,.3,0,.45a9.95,9.95,0,0,1-15.31,8.38,7.73,7.73,0,0,0,.84.05,7,7,0,0,0,4.34-1.5,3.51,3.51,0,0,1-3.27-2.43,3,3,0,0,0,.66.07,3.1,3.1,0,0,0,.92-.13,3.49,3.49,0,0,1-2.8-3.42v-.05a3.52,3.52,0,0,0,1.58.44,3.51,3.51,0,0,1-1.08-4.67,9.87,9.87,0,0,0,7.2,3.65,3.42,3.42,0,0,1-.09-.79,3.5,3.5,0,0,1,6.05-2.39,7.1,7.1,0,0,0,2.22-.85,3.52,3.52,0,0,1-1.54,1.93,6.8,6.8,0,0,0,2-.55A7.13,7.13,0,0,1,144.35,133.71Z" transform="translate(-76.53 -119.35)"/>
  <path class="cls-1" d="M93.54,119.35a17,17,0,1,0,17,17A17,17,0,0,0,93.54,119.35Zm3.76,14.13L97.1,136H94.49v8.84H91.2V136H89.44v-2.54H91.2v-1.71a4.64,4.64,0,0,1,.56-2.64,3.14,3.14,0,0,1,2.73-1.28,11,11,0,0,1,3.16.32l-.44,2.6a6.08,6.08,0,0,0-1.42-.21c-.68,0-1.3.25-1.3.93v2Z" transform="translate(-76.53 -119.35)"/>
  <g class="cls-2">
    <path class="cls-3" d="M186.22,136.36a4.65,4.65,0,1,1-8.95-1.75h-2.54v7a1.63,1.63,0,0,0,1.63,1.63h10.43a1.63,1.63,0,0,0,1.63-1.63v-7h-2.54A4.62,4.62,0,0,1,186.22,136.36Z" transform="translate(-76.53 -119.35)"/>
    <path class="cls-3" d="M181.57,139.35a3,3,0,1,0-2.42-4.74,3,3,0,0,0-.57,1.75A3,3,0,0,0,181.57,139.35Z" transform="translate(-76.53 -119.35)"/>
    <polygon class="cls-3" points="111.58 13.35 111.58 10.84 111.58 10.46 111.2 10.46 108.69 10.47 108.7 13.36 111.58 13.35"/>
    <path class="cls-3" d="M181.57,119.35a17,17,0,1,0,17,17A17,17,0,0,0,181.57,119.35Zm8.51,15.26v7a3.29,3.29,0,0,1-3.29,3.29H176.36a3.29,3.29,0,0,1-3.29-3.29V131.14a3.29,3.29,0,0,1,3.29-3.29h10.43a3.3,3.3,0,0,1,3.29,3.29Z" transform="translate(-76.53 -119.35)"/>
  </g>
</svg>
