<svg id="Layer_1" data-name="Layer 1" xmlns="http://www.w3.org/2000/svg" width="230.13" height="230.12" viewBox="0 0 230.13 230.12">
  <defs>
    <style>
      .cls-1, .cls-2 {
        fill: #fff;
      }

      .cls-1 {
        fill-rule: evenodd;
      }
    </style>
  </defs>
  <path class="cls-1" d="M284.07,370.39c-.59,1.74-14.35,42.61-14.35,42.61l36.87-25.44,36.26,25.51s-12.63-40.5-13.16-42.17l35.44-26.69H320.82l-14.44-42.68L292.5,344.35h-45Zm-9,35,31.36-42.17-18.93,5.85-30.83-22,49.72,16.17h0l-11.87-16.55,11.88-36.23v52.78h0l12.73-16h36.48l-49.21,16,19.72,6.35,11.23,35.61-30.95-42V384Z" transform="translate(-191.38 -248.3)"/>
  <path class="cls-2" d="M256.27,277.2l5.66,16.61,5.05-2.74Zm53.24,168.3c-.09-5.52-.31-7.62-4.12-7.56h-.13l.25,15.21h.22C309.46,453.09,309.6,450.8,309.51,445.5Zm-55.45-25.34c-1.34.85-4.71,4.46-10.3,10.78s-8.78,10.15-9.46,11.59a1.76,1.76,0,0,0,2.56,2.26c1.32-.82,4.72-4.46,10.33-10.82s8.79-10.14,9.43-11.55a1.74,1.74,0,0,0-2.56-2.26Zm-40.09-92c-5.06-2.08-7.18-2.51-8.63,1-.06.13-.09.22-.15.34L220.88,336c.05-.12.1-.25.16-.38C222.54,331.94,220.1,330.68,214,328.15ZM342.2,430.51a1.63,1.63,0,0,0-2.13-.58,1.6,1.6,0,0,0-1,2c.2,1.58,2.08,6.15,5.49,13.87s5.56,12.22,6.58,13.43a1.75,1.75,0,0,0,3.12-1.38c-.18-1.54-2.08-6.14-5.51-13.91S343.2,431.68,342.2,430.51ZM306.45,248.3A115.07,115.07,0,1,0,421.51,363.37,115.07,115.07,0,0,0,306.45,248.3Zm83.66,49.06.83-.6,6,8.27-.82.6-1.62-2.2-26.08,19.06.25.34c2.46,3.36,5.92,2.45,12.18-1.79l.6.83-9.61,7L363.21,317l.82-.6,1.26,1.72,26.08-19.06ZM375,281.47l7.29,6.31-.67.78-1.61-1.4-21.16,24.42,1.61,1.39-.66.78-7.29-6.32.66-.77,1.62,1.4L376,283.64l-1.61-1.4Zm-26.92-16,7,3.55c5.17,2.6,6.76,7.4,4.49,11.91-1.92,3.81-5.78,5.5-10.3,4.37,4.14,3,4.42,5.85,1.86,10.95l-2,4c-.89,1.78-1.19,2.67-.61,3s1.46-.73,2.6-3l.31-.62,1,.47-.4.79c-1.56,3.11-3.24,4-5.81,2.68-1.7-.86-2.17-2.08-1.9-4.07.18-1.26,1.67-4.14,3.95-9,1.42-3,1.54-4.31-1-5.58l-.46-.23-7,13.91,1.9,1-.45.91-8.62-4.34.46-.91,1.91,1,14.53-28.86-1.91-.95Zm-30.81,10c2.51-11,8.36-16.87,13.2-15.77a5.51,5.51,0,0,1,3.51,3l1.54-1.75,1,.23L333.61,274l-1-.23c1.1-8.16.43-12.5-2.46-13.16-3.12-.71-4.34,4-6.73,14.49l-1,4.56c-2.05,8.95-2.78,13-.3,13.58,1.49.34,2.42-.83,3-3.54l2.41-10.53-2.13-.48.23-1,9.45,2.16-.23,1-2.08-.48-3.52,15.41-1-.24-1.49-3.67c-1.4,2-3,2.69-4.89,2.26C317.58,293.18,314.93,285.83,317.3,275.48Zm53.95,88.28a65.18,65.18,0,1,1-65.18-65.18A65.19,65.19,0,0,1,371.25,363.76Zm-90-102.94L294,279.28l-3.33-15c-.66-3-1.86-4.1-4.07-3.6l-.23-1,7-1.56.22,1-.13,0c-2.09.46-2.17,1.57-1.55,4.38l6.37,28.7-1,.22-17.63-25.25L284.49,289c.75,3.4,1.89,4.67,4.69,4.24l.22,1-7.56,1.68-.22-1c2.21-.73,2.24-2.11,1.52-5.32l-5.95-26.8-2.17.48-.22-1Zm-24.51,9.11,21,26.56,1.34-.73.49.9L271.47,301l-.48-.9,2.12-1.15-5.35-7-5.46,3,1.62,4.76a15.79,15.79,0,0,0,.69,1.48c.71,1.3,1.58,1.46,3.28.6l.49.9-6.2,3.35-.49-.9c1.76-1.43,1.22-2.82.34-5.61l-8.86-27.68Zm-24,16.19a4.31,4.31,0,0,1,4.19-1l-.71-2.21.78-.74,8,8.42-.8.77c-5.13-4.84-9-6.18-10.71-4.58-2.38,2.27,1.31,6.62,9.5,15.21,7.19,7.55,11,10.95,13.43,8.65,2-1.89.59-5.63-4.4-10.86l-.44-.47.93-.9.23.24c5.82,6.11,7.32,10.37,4.33,13.22a6.89,6.89,0,0,1-5.24,1.41c-4.52-.44-9-2.87-13-7.13a30,30,0,0,1-7-11.58C230.67,290.7,231,287.82,232.79,286.12Zm-13.44,15.52,9,5.94-.51.78c-5.87-3.48-8.9-4.36-10.94-1.27-.13.2-.22.41-.34.61l12.73,8.39.11-.16c1-1.59-.32-3.14-3.92-5.52l.51-.77,11.46,7.55L237,318c-3.77-2.37-5.55-3.21-6.62-1.58l-.17.27,13.39,8.82c.08-.12.16-.23.23-.35,2.29-3.48.22-6.4-5.94-10.79l.57-.85,9.94,6.55-8.08,12.27-.85-.56L240.6,330l-27-17.77L212.45,314l-.85-.56Zm-2.69,91.5a6.65,6.65,0,1,1,6.65-6.64A6.64,6.64,0,0,1,216.66,393.14Zm-13.52-58.68-.81,2-.94-.38,3.2-7.76c2.14-5.18,6.53-6.83,12-4.57s7.49,7,5.21,12.53a.78.78,0,0,1,0,.09l13.28,5.48,1-2.36.95.39-3.84,9.29-.94-.38.81-2Zm35.23,111.6a4.14,4.14,0,0,1-5.52-4.87c.33-4.44,2.56-9.48,6.61-14.05s8.73-7.38,13.09-8.25a4.1,4.1,0,0,1,5.52,4.87c-.33,4.44-2.53,9.44-6.57,14S242.73,445.19,238.37,446.06Zm34.26-9.34-18.08,22.64-1.43-.75,9.46-32.1-1.15-.6.46-.87,7.31,3.84-.46.87-1.83-1-6.22,20.82,10.28-13a17.77,17.77,0,0,0,1.53-2.23c.71-1.36.37-2.35-1.18-3.26l.46-.87,5.84,3.06-.46.88C275.63,433.42,274.53,434.37,272.63,436.72Zm19.82,10.22-.88-.17c.93-6.54.6-9.57-2.93-10.25-.22,0-.44,0-.66-.08l-2.79,14.5.18,0c1.81.35,2.7-1.45,3.48-5.55l.89.17-2.51,13-.88-.17c.72-4.25.82-6.15-1-6.51l-.3-.06-2.93,15.26.39.07c4,.76,5.81-2.18,7.46-9.31l1,.19-2.18,11.33-14-2.69.18-1,2,.39,5.9-30.72-2-.39.19-1,13.4,2.58Zm21,23.62c-1.84,0-2.8-.8-3.46-2.63-.42-1.16-.43-4.3-.65-9.46-.14-3.23-.61-4.38-3.35-4.34h-.49l.25,15.07,2.06,0,0,1-9.33.15,0-1,2.07,0L300.05,438l-2.06,0,0-1,7.63-.13c5.61-.1,9.12,3.3,9.2,8.19.07,4.13-2.48,7.31-6.86,8.37,4.9.73,6.42,3,6.52,8.56l.07,4.35c0,1.93.18,2.82.81,2.81s.92-1.27.88-3.74c0-.22,0-.44,0-.67l1,0c0,.27,0,.59,0,.85C317.31,469,316.26,470.52,313.48,470.56Zm12.65-2.39-.21-1,2.42-.51-6.44-30.62-.13,0c-2.77.58-3.15,3.55-2,9.45l-.88.18L317,436.09l14.41-3,2.16,9.6-.89.18c-1.28-5.88-2.83-8.44-5.59-7.86l-.13,0,6.44,30.62,2.46-.52.2,1ZM356.06,457a4.14,4.14,0,0,1-6.73,3c-3.9-2.16-7.54-6.28-10-11.87s-3.06-11-2-15.35a4.11,4.11,0,0,1,6.73-3c3.9,2.16,7.52,6.25,10,11.83S357.09,452.64,356.06,457Zm23.77-14.11-26.26-14.09,13.7,16.68c2.14,2.6,3.67,3.19,5.9,1.6l.63.76-5.8,4.76-.62-.76c1.59-1.6,1-2.81-1-5.27L349.51,426l-1.67,1.36-.63-.76,5-4.07,19,10.38-9.42-11.48c-1.88-2.28-3.41-2.72-5.11-1.33l-.62-.76,5.38-4.42.62.77-.1.08c-1.6,1.32-1.18,2.31.58,4.46l18.06,22Zm12.26-49.72a6.65,6.65,0,1,1,6.65-6.64A6.64,6.64,0,0,1,392.09,393.14Zm15.49-66.56-29.71,12.68c.05.12.1.25.16.38,1.64,3.84,5.21,3.72,12.27,1l.4.94-10.95,4.67L374,332.75l.94-.4.84,2,29.71-12.68-.83-2,.94-.4,4,9.42-.93.4ZM347.5,284c3.44,1.73,4.66-.29,7.12-5.18,2.57-5.09,3.38-7.12-.14-8.89l-.12-.07-7.07,14Z" transform="translate(-191.38 -248.3)"/>
</svg>
