<svg id="Layer_1" data-name="Layer 1" xmlns="http://www.w3.org/2000/svg" width="140.65" height="40.71" viewBox="0 0 140.65 40.71">
  <defs>
    <style>
      .cls-1 {
        opacity: 0.4;
      }

      .cls-2 {
        fill: #fff;
      }

      .cls-3 {
        fill: #6caddf;
      }

      .cls-4, .cls-5 {
        fill: none;
      }

      .cls-4 {
        stroke: #ffc425;
        stroke-width: 0.33px;
      }

      .cls-5 {
        stroke: #fff;
        stroke-linecap: round;
        stroke-linejoin: round;
        stroke-width: 1.3px;
      }

      .cls-6 {
        fill: #ffc425;
      }

      .cls-7 {
        fill: #6f1200;
      }
    </style>
  </defs>
  <g class="cls-1">
    <path class="cls-2" d="M449.64,303.31a1.39,1.39,0,0,1-.51,1.11,1.83,1.83,0,0,1-2.37,0,1.46,1.46,0,0,1,0-2.23,1.83,1.83,0,0,1,2.37,0,1.39,1.39,0,0,1,.51,1.1m-.73.19a1.82,1.82,0,0,0-.47-1.32.89.89,0,0,0-.61-.29.75.75,0,0,0-.68.43,1.9,1.9,0,0,0,.29,2.12.89.89,0,0,0,.6.29.73.73,0,0,0,.67-.43A1.61,1.61,0,0,0,448.91,303.5Z" transform="translate(-387.06 -266.46)"/>
    <path class="cls-2" d="M454.82,303.9v0a1.46,1.46,0,0,1-.56.65,1.57,1.57,0,0,1-.84.24,1.5,1.5,0,0,1-1.08-.44,1.44,1.44,0,0,1-.45-1.08,1.47,1.47,0,0,1,.45-1.07,1.44,1.44,0,0,1,1.06-.45,1.21,1.21,0,0,1,1.15.66H452.7a1.45,1.45,0,0,0-.15.66,1.62,1.62,0,0,0,.34,1,1.08,1.08,0,0,0,.9.5,1.15,1.15,0,0,0,.95-.71l0,0s.05,0,.05,0m-1-1.56a.44.44,0,0,0-.13-.31.43.43,0,0,0-.31-.12.78.78,0,0,0-.63.43Z" transform="translate(-387.06 -266.46)"/>
    <path class="cls-2" d="M473.18,303.28a1.4,1.4,0,0,1-.52,1.1,1.83,1.83,0,0,1-2.36,0,1.41,1.41,0,0,1-.53-1.12,1.39,1.39,0,0,1,.53-1.12,1.76,1.76,0,0,1,1.17-.43,1.79,1.79,0,0,1,1.19.44,1.42,1.42,0,0,1,.52,1.11m-.74.18a1.85,1.85,0,0,0-.47-1.32.89.89,0,0,0-.61-.29.75.75,0,0,0-.67.43,1.62,1.62,0,0,0-.2.83,1.74,1.74,0,0,0,.48,1.29.89.89,0,0,0,.61.29.73.73,0,0,0,.66-.43A1.58,1.58,0,0,0,472.44,303.46Z" transform="translate(-387.06 -266.46)"/>
    <path class="cls-2" d="M481.8,303.86v0a1.47,1.47,0,0,1-.56.65,1.57,1.57,0,0,1-.84.24,1.46,1.46,0,0,1-1.08-.44,1.53,1.53,0,0,1,1.06-2.6,1.19,1.19,0,0,1,1.14.66h-1.84a1.59,1.59,0,0,0-.14.66,1.62,1.62,0,0,0,.34,1,1.08,1.08,0,0,0,.9.5,1.13,1.13,0,0,0,.94-.71l0,0a0,0,0,0,1,.05,0m-1-1.56a.45.45,0,0,0-.12-.31.43.43,0,0,0-.31-.12.78.78,0,0,0-.63.43Z" transform="translate(-387.06 -266.46)"/>
    <path class="cls-2" d="M487.21,303.86v0a1.36,1.36,0,0,1-.56.65,1.57,1.57,0,0,1-.83.24,1.46,1.46,0,0,1-1.08-.44,1.51,1.51,0,0,1,0-2.14,1.48,1.48,0,0,1,1.07-.46,1.19,1.19,0,0,1,1.14.66h-1.84a1.45,1.45,0,0,0-.15.66,1.68,1.68,0,0,0,.34,1,1.08,1.08,0,0,0,.9.5c.37,0,.68-.24.95-.71t0,0s0,0,0,0m-1-1.56a.43.43,0,0,0-.44-.43.78.78,0,0,0-.63.43Z" transform="translate(-387.06 -266.46)"/>
    <path class="cls-2" d="M493.66,303.63a1.45,1.45,0,0,1-.46.76,1.23,1.23,0,0,1-.85.33,1.26,1.26,0,0,1-1-.43,1.57,1.57,0,0,1-.4-1.06,1.52,1.52,0,0,1,.4-1.06,1.27,1.27,0,0,1,1-.44,1.5,1.5,0,0,1,.67.16.58.58,0,0,1,.36.51.5.5,0,0,1-.21.42.72.72,0,0,1-.48.17.82.82,0,0,1-.4-.1.07.07,0,0,1,0-.06s0,0,0,0,.05,0,.11,0a.47.47,0,0,0,.22.05.34.34,0,0,0,.28-.14.36.36,0,0,0,.08-.23.59.59,0,0,0-.28-.52.45.45,0,0,0-.26-.08.75.75,0,0,0-.37.11,1.08,1.08,0,0,0-.46,1,1.6,1.6,0,0,0,.47,1.23.93.93,0,0,0,.63.27.8.8,0,0,0,.66-.36,1.14,1.14,0,0,0,.22-.5s0,0,.06,0,0,0,0,.05" transform="translate(-387.06 -266.46)"/>
    <path class="cls-2" d="M496.86,303.86v0a1.47,1.47,0,0,1-.56.65,1.57,1.57,0,0,1-.84.24,1.46,1.46,0,0,1-1.08-.44,1.53,1.53,0,0,1,1.06-2.6,1.19,1.19,0,0,1,1.14.66h-1.84a1.59,1.59,0,0,0-.14.66,1.67,1.67,0,0,0,.33,1,1.11,1.11,0,0,0,.91.5c.36,0,.67-.24.94-.71a.05.05,0,0,1,0,0,0,0,0,0,1,0,0m-1-1.56a.45.45,0,0,0-.12-.31.43.43,0,0,0-.31-.12.75.75,0,0,0-.63.43Z" transform="translate(-387.06 -266.46)"/>
    <path class="cls-2" d="M506.7,303.86v0a1.36,1.36,0,0,1-.56.65,1.57,1.57,0,0,1-.83.24,1.46,1.46,0,0,1-1.08-.44,1.51,1.51,0,0,1,0-2.14,1.48,1.48,0,0,1,1.07-.46,1.19,1.19,0,0,1,1.14.66h-1.84a1.45,1.45,0,0,0-.15.66,1.68,1.68,0,0,0,.34,1,1.08,1.08,0,0,0,.9.5c.37,0,.68-.24.95-.71a.05.05,0,0,1,0,0,0,0,0,0,1,0,0m-1-1.56a.45.45,0,0,0-.12-.31.45.45,0,0,0-.32-.12.78.78,0,0,0-.63.43Z" transform="translate(-387.06 -266.46)"/>
    <path class="cls-2" d="M515.35,303.86v0a1.36,1.36,0,0,1-.56.65,1.54,1.54,0,0,1-.83.24,1.46,1.46,0,0,1-1.08-.44,1.44,1.44,0,0,1-.45-1.08,1.54,1.54,0,0,1,1.51-1.52,1.19,1.19,0,0,1,1.14.66h-1.84a1.45,1.45,0,0,0-.14.66,1.67,1.67,0,0,0,.33,1,1.1,1.1,0,0,0,.9.5c.37,0,.68-.24.95-.71,0,0,0,0,0,0a0,0,0,0,1,0,0m-1-1.56a.45.45,0,0,0-.12-.31.44.44,0,0,0-.32-.12.78.78,0,0,0-.63.43Z" transform="translate(-387.06 -266.46)"/>
    <g>
      <path class="cls-3" d="M422.3,289.47a14.7,14.7,0,1,1-14.7-14.71,14.7,14.7,0,0,1,14.7,14.71" transform="translate(-387.06 -266.46)"/>
      <line class="cls-4" x1="11.47" y1="11.65" x2="20.65" y2="23.11"/>
      <line class="cls-4" x1="14.47" y1="9.79" x2="20.65" y2="23.11"/>
      <line class="cls-4" x1="17.82" y1="8.7" x2="20.65" y2="23.11"/>
      <line class="cls-4" x1="21.34" y1="8.45" x2="20.65" y2="23.11"/>
      <line class="cls-4" x1="24.81" y1="9.03" x2="20.65" y2="23.11"/>
      <line class="cls-4" x1="28.05" y1="10.43" x2="20.65" y2="23.11"/>
      <line class="cls-4" x1="30.86" y1="12.56" x2="20.65" y2="23.11"/>
      <line class="cls-4" x1="33.07" y1="15.3" x2="20.65" y2="23.11"/>
      <line class="cls-4" x1="34.58" y1="18.49" x2="20.65" y2="23.11"/>
      <line class="cls-4" x1="35.28" y1="21.94" x2="20.65" y2="23.11"/>
      <line class="cls-4" x1="35.14" y1="25.46" x2="20.65" y2="23.11"/>
      <line class="cls-4" x1="34.16" y1="28.85" x2="20.65" y2="23.11"/>
      <line class="cls-4" x1="32.4" y1="31.9" x2="20.65" y2="23.11"/>
      <line class="cls-4" x1="29.97" y1="34.45" x2="20.65" y2="23.11"/>
      <line class="cls-4" x1="26.99" y1="36.34" x2="20.65" y2="23.11"/>
      <line class="cls-4" x1="23.66" y1="37.48" x2="20.65" y2="23.11"/>
      <line class="cls-4" x1="20.15" y1="37.78" x2="20.65" y2="23.11"/>
      <line class="cls-4" x1="16.66" y1="37.24" x2="20.65" y2="23.11"/>
      <line class="cls-4" x1="13.41" y1="35.88" x2="20.65" y2="23.11"/>
      <line class="cls-4" x1="10.58" y1="33.79" x2="20.65" y2="23.11"/>
      <line class="cls-4" x1="8.32" y1="31.08" x2="20.65" y2="23.11"/>
      <line class="cls-4" x1="6.77" y1="27.92" x2="20.65" y2="23.11"/>
      <line class="cls-4" x1="6.03" y1="24.47" x2="20.65" y2="23.11"/>
      <line class="cls-4" x1="6.13" y1="20.95" x2="20.65" y2="23.11"/>
      <line class="cls-4" x1="7.06" y1="17.55" x2="20.65" y2="23.11"/>
      <line class="cls-4" x1="8.77" y1="14.47" x2="20.65" y2="23.11"/>
      <line class="cls-4" x1="19.49" y1="8.47" x2="20.65" y2="23.1"/>
      <line class="cls-4" x1="23.01" y1="8.62" x2="20.65" y2="23.1"/>
      <line class="cls-4" x1="26.39" y1="9.6" x2="20.65" y2="23.1"/>
      <line class="cls-4" x1="29.45" y1="11.35" x2="20.65" y2="23.1"/>
      <line class="cls-4" x1="31.99" y1="13.79" x2="20.65" y2="23.1"/>
      <line class="cls-4" x1="33.89" y1="16.76" x2="20.65" y2="23.1"/>
      <line class="cls-4" x1="35.02" y1="20.1" x2="20.65" y2="23.1"/>
      <line class="cls-4" x1="35.32" y1="23.61" x2="20.65" y2="23.1"/>
      <line class="cls-4" x1="34.78" y1="27.09" x2="20.65" y2="23.1"/>
      <line class="cls-4" x1="33.42" y1="30.34" x2="20.65" y2="23.1"/>
      <line class="cls-4" x1="31.33" y1="33.18" x2="20.65" y2="23.1"/>
      <line class="cls-4" x1="28.62" y1="35.43" x2="20.65" y2="23.1"/>
      <line class="cls-4" x1="25.45" y1="36.98" x2="20.65" y2="23.1"/>
      <line class="cls-4" x1="22" y1="37.72" x2="20.65" y2="23.1"/>
      <line class="cls-4" x1="18.48" y1="37.62" x2="20.65" y2="23.1"/>
      <line class="cls-4" x1="15.08" y1="36.69" x2="20.65" y2="23.1"/>
      <line class="cls-4" x1="12.01" y1="34.97" x2="20.65" y2="23.1"/>
      <line class="cls-4" x1="9.43" y1="32.57" x2="20.65" y2="23.1"/>
      <line class="cls-4" x1="7.5" y1="29.62" x2="20.65" y2="23.1"/>
      <line class="cls-4" x1="6.32" y1="26.3" x2="20.65" y2="23.1"/>
      <line class="cls-4" x1="5.97" y1="22.79" x2="20.65" y2="23.1"/>
      <line class="cls-4" x1="6.47" y1="19.3" x2="20.65" y2="23.1"/>
      <line class="cls-4" x1="7.78" y1="16.03" x2="20.65" y2="23.1"/>
      <line class="cls-4" x1="9.84" y1="13.17" x2="20.65" y2="23.1"/>
      <line class="cls-4" x1="12.52" y1="10.88" x2="20.65" y2="23.1"/>
      <line class="cls-4" x1="15.67" y1="9.3" x2="20.65" y2="23.1"/>
      <path class="cls-2" d="M450,285.05a9.07,9.07,0,0,1-3,6.89,10.24,10.24,0,0,1-14.19-.05,9.19,9.19,0,0,1-3-6.84,9.08,9.08,0,0,1,3-6.86,10.31,10.31,0,0,1,14.17,0,9,9,0,0,1,3,6.88m-3.63-1.7a10.7,10.7,0,0,0-2.61-4.69,6.52,6.52,0,0,0-4.77-2.23,5.12,5.12,0,0,0-4.46,2.46,8.8,8.8,0,0,0-1.42,5,10.74,10.74,0,0,0,.38,2.85,10.62,10.62,0,0,0,2.62,4.69,6.39,6.39,0,0,0,4.76,2.23,5.11,5.11,0,0,0,4.42-2.42,8.8,8.8,0,0,0,1.46-5.08A10.74,10.74,0,0,0,446.41,283.35Z" transform="translate(-387.06 -266.46)"/>
      <path class="cls-2" d="M462.34,281.27q0,2.34-2.08,6.91a64.58,64.58,0,0,1-3.45,6.47h-.41l-4.89-14.37a1.56,1.56,0,0,0-1.58-1.14h-.32a.17.17,0,0,1-.19-.18c0-.11.07-.16.19-.16h5.77a.14.14,0,0,1,.16.16c0,.13-.05.19-.16.19-.54,0-.89.1-1,.3a.82.82,0,0,0-.09.74c1.14,3.72,2.29,7.39,3.45,11a21.15,21.15,0,0,0,2.28-5.55,10,10,0,0,0,.38-3.09c-.07-1.26-.64-1.89-1.72-1.89a1.5,1.5,0,0,0-1.33.94c-.08.15-.16.19-.22.1s-.15-.1-.13-.22a4.6,4.6,0,0,1,1.71-2.37,2.71,2.71,0,0,1,1.46-.44,2,2,0,0,1,1.7.79,3.09,3.09,0,0,1,.51,1.83" transform="translate(-387.06 -266.46)"/>
      <path class="cls-2" d="M474.59,279a4.36,4.36,0,0,1-2,3.2c-.07.07-.13.07-.19,0s-.1-.13,0-.22a1.67,1.67,0,0,0,.17-.78c0-.66-.41-1.13-1.22-1.42a5.5,5.5,0,0,0-2-.35h-.6c-.81,0-1.22.36-1.22,1.08v8.37h1.89a2.09,2.09,0,0,0,1.29-.35,2.75,2.75,0,0,0,.66-.87.16.16,0,0,1,.19-.06.15.15,0,0,1,.12.16v3.06a.14.14,0,0,1-.12.15.14.14,0,0,1-.19-.06,2.11,2.11,0,0,0-2-1.19h-1.89v2.62c0,1.07.64,1.61,1.92,1.61a4,4,0,0,0,2.05-.57,1.86,1.86,0,0,0,1.1-1.61,1.61,1.61,0,0,0-.46-1.11c-.05,0-.05-.12,0-.22s.16-.09.22-.06c1.38.57,2.07,1.38,2.07,2.44a2.4,2.4,0,0,1-.25.92,1.74,1.74,0,0,1-.73.86H462.76c-.15,0-.22-.07-.22-.19s.07-.19.22-.19h.34a1.36,1.36,0,0,0,1.11-.59,2,2,0,0,0,.46-1.28V280.25c0-.74-.39-1.11-1.16-1.11h-.31c-.13,0-.19-.05-.19-.16s.06-.22.19-.22h11.23c.15,0,.2.08.16.22" transform="translate(-387.06 -266.46)"/>
      <path class="cls-2" d="M494.52,296.94c.1,1.4-.94,2.1-3.13,2.1a5.94,5.94,0,0,1-1.74-.22,7.47,7.47,0,0,1-3.69-2.58c-.17-.23-3-5.69-4.74-8.44a4.41,4.41,0,0,0-.79-.91s-.11,0-.28,0v5.52a2,2,0,0,0,.47,1.27,1.44,1.44,0,0,0,1.14.59h.35a.17.17,0,0,1,.19.19c0,.11-.07.16-.19.16h-6.72a.14.14,0,0,1-.16-.16c0-.12,0-.19.16-.19h.41a1.36,1.36,0,0,0,1.11-.59,2.11,2.11,0,0,0,.46-1.27V280.26c0-.72-.49-1.08-1.48-1.08-.12,0-.19-.05-.19-.15a.17.17,0,0,1,.19-.19h6.18a10.79,10.79,0,0,1,4.28.79q2.52,1.1,2.52,3.21c0,1.13-.75,2.08-2.26,2.83a11.52,11.52,0,0,1-3.71,1.08c1.22.6,4.13,5.91,5.05,8a9.42,9.42,0,0,0,1.46,2.55,3.43,3.43,0,0,0,2.62,1.17,2,2,0,0,0,1.39-.46.71.71,0,0,0,.26-.56q0-.35-.39-.18l-.36.19c0-.78.31-1.17.92-1.17.4,0,.62.23.67.69m-9.19-14.22a2.72,2.72,0,0,0-1.38-2.4,5,5,0,0,0-2.83-.8c-.65,0-1,.34-1,1v5.4a5.73,5.73,0,0,0,.84.06,5.26,5.26,0,0,0,2.93-.79A2.92,2.92,0,0,0,485.33,282.72Z" transform="translate(-387.06 -266.46)"/>
      <path class="cls-2" d="M501.21,276a1.17,1.17,0,0,1-.28.58l-1.45,3.22c-.07.11-.13.16-.19.16a.14.14,0,0,1-.16-.16s0,0,0-.09a1.7,1.7,0,0,0,.16-.79,1.55,1.55,0,0,0-1.73-1.77h-2v15.32a2,2,0,0,0,.45,1.25,1.41,1.41,0,0,0,1.15.58c.35,0,.53.06.53.19s-.06.15-.19.15h-6.62c-.11,0-.16-.05-.16-.15s.17-.19.5-.19a1.39,1.39,0,0,0,1.14-.59,2,2,0,0,0,.45-1.25V277.14h-.38a4.22,4.22,0,0,0-2.24.53,6.37,6.37,0,0,0-1.74,2.16c-.05.08-.09.12-.13.12a.17.17,0,0,1-.19-.19,24.09,24.09,0,0,1,1.76-3.86.15.15,0,0,1,.16-.1c.13,0,.19.05.19.15a2.8,2.8,0,0,1-.22.42h10.66c.15-.38.28-.57.38-.57a.17.17,0,0,1,.19.19" transform="translate(-387.06 -266.46)"/>
      <path class="cls-2" d="M514.46,286.79a7.46,7.46,0,0,1-2.47,5.66,8.22,8.22,0,0,1-5.82,2.32,8.11,8.11,0,0,1-5.83-2.37,7.52,7.52,0,0,1-2.46-5.61,7.42,7.42,0,0,1,2.48-5.63,8.47,8.47,0,0,1,11.63,0,7.42,7.42,0,0,1,2.47,5.65m-3-1.39a8.67,8.67,0,0,0-2.15-3.85,5.35,5.35,0,0,0-3.91-1.83,4.19,4.19,0,0,0-3.66,2,7.19,7.19,0,0,0-1.17,4.13,9.18,9.18,0,0,0,2.46,6.19,5.28,5.28,0,0,0,3.92,1.83,4.17,4.17,0,0,0,3.62-2,7.25,7.25,0,0,0,1.2-4.17A8.94,8.94,0,0,0,511.48,285.4Z" transform="translate(-387.06 -266.46)"/>
      <path class="cls-2" d="M527.69,296.34a.39.39,0,0,1-.25,0,5.92,5.92,0,0,1-2.83-2.63l-6.8-11v9.72a2,2,0,0,0,.46,1.25,1.41,1.41,0,0,0,1.13.6h.34a.17.17,0,0,1,.19.19c0,.1-.06.15-.19.15h-4.92c-.13,0-.19-.05-.19-.15a.17.17,0,0,1,.19-.19h.38a1.42,1.42,0,0,0,1.14-.6,2,2,0,0,0,.47-1.26V281.13a4.71,4.71,0,0,0-1.1-1.33,2.77,2.77,0,0,0-1.68-.47.17.17,0,0,1-.19-.19A.17.17,0,0,1,514,279h4.54l6.36,10.59v-9.13c0-.72-.38-1.08-1.15-1.08h-.35c-.1,0-.16-.06-.16-.19s.06-.19.16-.19h4c.1,0,.16.07.16.19s-.06.19-.16.19h-.32q-1.2,0-1.2,1.08v11.13a8.14,8.14,0,0,0,.41,2.43,4.39,4.39,0,0,0,1.27,2.08c.1.13.13.22.09.29" transform="translate(-387.06 -266.46)"/>
      <path class="cls-2" d="M445.69,304.74s0,.06-.05.06H443.7a.06.06,0,1,1,0-.12h.11a.38.38,0,0,0,.31-.18.61.61,0,0,0,.13-.36v-.73h-1.56v.73a.64.64,0,0,0,.13.37.42.42,0,0,0,.33.17h.1c.05,0,.07,0,.07.06s0,.06-.07.06h-1.93a.06.06,0,1,1,0-.12h.1a.42.42,0,0,0,.33-.17.55.55,0,0,0,.14-.37v-3.48c0-.22-.11-.32-.34-.32h-.1a0,0,0,0,1-.05,0c0-.05,0-.07.05-.07h1.67s.05,0,.05.07a0,0,0,0,1-.05,0H443c-.22,0-.34.1-.34.31v2.54h1.56v-2.54a.28.28,0,0,0-.32-.31h-.09s-.07,0-.07,0,0-.07.07-.07h1.66s.05,0,.05.07a0,0,0,0,1-.05,0h-.1c-.22,0-.33.1-.33.32v3.48a.56.56,0,0,0,.13.37.42.42,0,0,0,.33.17h.11s.05,0,.05.06" transform="translate(-387.06 -266.46)"/>
      <path class="cls-2" d="M451.66,299.45a.05.05,0,0,1,0,.05,2,2,0,0,0-.8,1.7v.64h.53s0,0,0,0,0,.05,0,.05h-.53v2.14c0,.28.1.43.3.43a.43.43,0,0,0,.36-.26s0,0,.05,0,0,0,0,.06a.82.82,0,0,1-.75.52.59.59,0,0,1-.53-.28,1,1,0,0,1-.14-.55v-2.05H450s0,0,0-.05,0,0,0,0h.19v0a3.18,3.18,0,0,1,.35-1.46,1.68,1.68,0,0,1,1.11-.93.06.06,0,0,1,.06,0" transform="translate(-387.06 -266.46)"/>
      <path class="cls-2" d="M456.9,298.44s0,0,0,.06a1.79,1.79,0,0,0-.75,1.57v4.15a.51.51,0,0,0,.11.31.35.35,0,0,0,.28.15s0,0,0,0,0,0,0,0h-1.41s-.05,0-.05,0,0-.05,0-.05a.35.35,0,0,0,.28-.15.45.45,0,0,0,.11-.3v-3.6a2.83,2.83,0,0,1,.33-1.34,1.5,1.5,0,0,1,1-.86.06.06,0,0,1,0,0" transform="translate(-387.06 -266.46)"/>
      <path class="cls-2" d="M463.33,302.68a1,1,0,0,1,.05.35,1.31,1.31,0,0,1-.25.77,1.54,1.54,0,0,1-.66.52.51.51,0,0,0,.49.36h.2s0,0,0,.06,0,.06,0,.06h-1.3s-.06-.05-.08-.13a2.66,2.66,0,0,1-.78.13,2.05,2.05,0,0,1-1.08-.29,1.39,1.39,0,0,1-.66-.87,1.36,1.36,0,0,1,0-.29,1.4,1.4,0,0,1,.37-.94,2.28,2.28,0,0,1,.84-.61l-.41-.9a1.56,1.56,0,0,0-.29-.44.72.72,0,0,0-.46-.12s0,0,0-.06,0,0,0,0h3.38a.66.66,0,0,1,.32.08c.06,0,0,.06,0,.09a.62.62,0,0,0-.31.46.68.68,0,0,1-1,.54.06.06,0,0,1,0-.06,0,0,0,0,1,0,0,.44.44,0,0,0,.26-.44.43.43,0,0,0-.15-.34.61.61,0,0,0-.42-.14H461a.25.25,0,0,0-.23.13.4.4,0,0,0,0,.33l1.54,3.25a.91.91,0,0,0,.37-.81,1.27,1.27,0,0,0-.52-1.11.8.8,0,0,0-.48-.17.58.58,0,0,0-.18,0,.09.09,0,0,1-.12-.09q0-.12.09-.15a1.72,1.72,0,0,1,.44-.06,1.58,1.58,0,0,1,.85.24,1.18,1.18,0,0,1,.52.68m-1.64,1.81L460.53,302a1,1,0,0,0-.47.92,1.68,1.68,0,0,0,.27.9,1.54,1.54,0,0,0,.67.62A.9.9,0,0,0,461.69,304.49Z" transform="translate(-387.06 -266.46)"/>
      <path class="cls-2" d="M469.31,303.85a.14.14,0,0,1,0,.06,2.19,2.19,0,0,1-.72.63,1.83,1.83,0,0,1-.9.23,1.88,1.88,0,0,1-1.51-.72,2.35,2.35,0,0,1-.59-1.59,2.43,2.43,0,0,1,.59-1.62,1.88,1.88,0,0,1,1.51-.72,1.72,1.72,0,0,1,.76.17.52.52,0,0,1,.49-.36s.05,0,.05.05v0a1,1,0,0,0-.17.53.63.63,0,0,0,0,.16,2,2,0,0,1,.05.49,1.13,1.13,0,0,1-.12.56.77.77,0,0,1-.69.45c-.25,0-.37-.09-.37-.26a.26.26,0,0,1,.1-.2.35.35,0,0,1,.23-.09s.06,0,.06.05a.09.09,0,0,1,0,.05.11.11,0,0,0,0,.05c0,.08,0,.12.1.12s.14-.07.19-.2a.89.89,0,0,0,.06-.3,1.17,1.17,0,0,0-.25-.7.78.78,0,0,0-.62-.35l-.13,0a1.09,1.09,0,0,0-.76.67,2.46,2.46,0,0,0-.21,1,3.57,3.57,0,0,0,.06.6,2.62,2.62,0,0,0,.64,1.36,1.21,1.21,0,0,0,.86.44l.14,0A1.42,1.42,0,0,0,469,304l.15-.21a.14.14,0,0,1,.09-.05c.05,0,.07,0,.07.09" transform="translate(-387.06 -266.46)"/>
      <path class="cls-2" d="M476.71,304.68a0,0,0,0,1,0,0h-1.41s-.05,0-.05,0,0,0,.05,0a.34.34,0,0,0,.27-.15.47.47,0,0,0,.12-.31v-1.5a.75.75,0,0,0-.13-.42.35.35,0,0,0-.32-.19.51.51,0,0,0-.42.24.86.86,0,0,0-.17.5v1.37a.47.47,0,0,0,.11.31.33.33,0,0,0,.26.14s0,0,.06.05,0,0-.06,0h-1.4s-.06,0-.06,0,0-.05.06-.05a.38.38,0,0,0,.28-.14.48.48,0,0,0,.12-.31v-1.91l-.31-.15.47-.24.47-.25v.82c.19-.49.48-.73.89-.73a.67.67,0,0,1,.58.33,1.15,1.15,0,0,1,.2.67v1.46a.53.53,0,0,0,.11.31.37.37,0,0,0,.28.14,0,0,0,0,1,0,.05" transform="translate(-387.06 -266.46)"/>
      <path class="cls-2" d="M479,298.41s0,0,0,0a1.78,1.78,0,0,0-.77,1.57v1.79h.29s.05,0,.05,0,0,0-.05,0h-.29v2.28a.52.52,0,0,0,.11.32.34.34,0,0,0,.29.14s0,0,0,0,0,0,0,0h-1.42s0,0,0,0,0-.05,0-.05a.34.34,0,0,0,.28-.13.54.54,0,0,0,.11-.32V301.9H477s-.05,0-.05,0a0,0,0,0,1,.05-.05.58.58,0,0,0,.43-.18.54.54,0,0,0,.19-.43v-.62a2.8,2.8,0,0,1,.33-1.34,1.55,1.55,0,0,1,1-.86s.05,0,.05,0" transform="translate(-387.06 -266.46)"/>
      <path class="cls-2" d="M483.56,304.66a0,0,0,0,1-.05,0H482.1a0,0,0,0,1-.05,0s0,0,.05,0a.35.35,0,0,0,.28-.15.53.53,0,0,0,.11-.31v-1.9l-.29-.16.92-.49v2.55a.48.48,0,0,0,.12.31.32.32,0,0,0,.27.15s.05,0,.05,0M484,302a.44.44,0,0,1-.11.3.32.32,0,0,1-.27.13.35.35,0,0,1-.28-.13.44.44,0,0,1-.11-.3.44.44,0,0,1,.11-.29.35.35,0,0,1,.28-.13.32.32,0,0,1,.27.13A.44.44,0,0,1,484,302Z" transform="translate(-387.06 -266.46)"/>
      <path class="cls-2" d="M490.72,304.68a0,0,0,0,1,0,0h-1.41s0,0,0,0,0,0,0,0a.34.34,0,0,0,.27-.15.47.47,0,0,0,.12-.31v-1.5a.68.68,0,0,0-.13-.42.35.35,0,0,0-.32-.19.52.52,0,0,0-.42.24.86.86,0,0,0-.17.5v1.37a.53.53,0,0,0,.11.31.33.33,0,0,0,.26.14s0,0,.06.05,0,0-.06,0h-1.4s0,0,0,0,0-.05,0-.05a.38.38,0,0,0,.28-.14.48.48,0,0,0,.12-.31v-1.91l-.31-.15.47-.24.47-.25v.82c.19-.49.48-.73.89-.73a.66.66,0,0,1,.58.33,1.15,1.15,0,0,1,.2.67v1.46a.53.53,0,0,0,.11.31.37.37,0,0,0,.28.14,0,0,0,0,1,0,.05" transform="translate(-387.06 -266.46)"/>
      <path class="cls-2" d="M503.34,303.85a.14.14,0,0,1,0,.06,2,2,0,0,1-.72.63,1.83,1.83,0,0,1-.9.23,1.88,1.88,0,0,1-1.51-.72,2.35,2.35,0,0,1-.59-1.59,2.43,2.43,0,0,1,.59-1.62,1.88,1.88,0,0,1,1.51-.72,1.72,1.72,0,0,1,.76.17.52.52,0,0,1,.49-.36,0,0,0,0,1,.05.05l0,0a1.05,1.05,0,0,0-.16.53.63.63,0,0,0,0,.16,2,2,0,0,1,.05.49,1.13,1.13,0,0,1-.12.56.77.77,0,0,1-.69.45c-.25,0-.37-.09-.37-.26a.26.26,0,0,1,.1-.2.35.35,0,0,1,.23-.09s.06,0,.06.05a.09.09,0,0,1,0,.05.11.11,0,0,0,0,.05c0,.08,0,.12.1.12s.14-.07.19-.2a.89.89,0,0,0,.06-.3,1.17,1.17,0,0,0-.25-.7.78.78,0,0,0-.62-.35l-.13,0a1.09,1.09,0,0,0-.76.67,2.46,2.46,0,0,0-.21,1,3.57,3.57,0,0,0,.06.6,2.55,2.55,0,0,0,.65,1.36,1.17,1.17,0,0,0,.85.44l.14,0A1.42,1.42,0,0,0,503,304l.15-.21a.14.14,0,0,1,.09-.05c.05,0,.07,0,.07.09" transform="translate(-387.06 -266.46)"/>
      <path class="cls-2" d="M510.21,304.68s0,0,0,0h-1.41s-.05,0-.05,0,0,0,.05,0a.34.34,0,0,0,.27-.15.47.47,0,0,0,.12-.31v-1.5a.68.68,0,0,0-.13-.42.35.35,0,0,0-.32-.19.52.52,0,0,0-.42.24.86.86,0,0,0-.17.5v1.37a.53.53,0,0,0,.11.31.33.33,0,0,0,.27.14l.05.05s0,0-.06,0h-1.4s-.05,0-.05,0,0-.05.05-.05a.37.37,0,0,0,.28-.14.48.48,0,0,0,.12-.31v-1.91l-.31-.15.47-.24.47-.25v.82c.19-.49.48-.73.89-.73a.66.66,0,0,1,.58.33,1.09,1.09,0,0,1,.2.67v1.46a.53.53,0,0,0,.11.31.37.37,0,0,0,.28.14s0,0,0,.05" transform="translate(-387.06 -266.46)"/>
      <path class="cls-2" d="M512.19,299.41a.08.08,0,0,1,0,0,2,2,0,0,0-.81,1.7v.64h.53a0,0,0,0,1,.05,0,0,0,0,0,1-.05.05h-.53V304c0,.29.1.43.31.43s.25-.09.35-.26c0,0,0,0,.05,0s0,0,0,.06a.82.82,0,0,1-.74.52.59.59,0,0,1-.54-.28,1,1,0,0,1-.13-.55v-2.05h-.19a0,0,0,0,1-.05-.05,0,0,0,0,1,.05,0h.19v0a3.17,3.17,0,0,1,.34-1.46,1.68,1.68,0,0,1,1.11-.93.06.06,0,0,1,.06,0" transform="translate(-387.06 -266.46)"/>
      <path class="cls-2" d="M517.11,304.66s0,0,0,0h-1.41a0,0,0,0,1,0,0s0,0,0,0a.33.33,0,0,0,.27-.15.47.47,0,0,0,.11-.31v-1.9l-.28-.16.92-.49v2.55a.53.53,0,0,0,.11.31.35.35,0,0,0,.28.15s0,0,0,0m.49-2.62a.44.44,0,0,1-.11.3.34.34,0,0,1-.28.13.32.32,0,0,1-.27-.13.44.44,0,0,1-.11-.3.44.44,0,0,1,.11-.29.32.32,0,0,1,.27-.13.34.34,0,0,1,.28.13A.44.44,0,0,1,517.6,302Z" transform="translate(-387.06 -266.46)"/>
      <polyline class="cls-2" points="16.39 15.95 21.16 22.01 21.16 0.65 16.39 15.95"/>
      <polygon class="cls-5" points="16.39 15.95 21.16 22.01 21.16 0.65 16.39 15.95"/>
      <polyline class="cls-2" points="26.18 15.95 21.42 22.01 21.42 0.65 26.18 15.95"/>
      <polygon class="cls-5" points="26.18 15.95 21.42 22.01 21.42 0.65 26.18 15.95"/>
      <polyline class="cls-2" points="26.36 15.68 21.45 22.04 41.85 15.69 26.36 15.68"/>
      <polygon class="cls-5" points="26.36 15.68 21.45 22.04 41.85 15.69 26.36 15.68"/>
      <polyline class="cls-2" points="28.95 24.7 21.53 22.28 41.93 15.94 28.95 24.7"/>
      <polygon class="cls-5" points="28.95 24.7 21.53 22.28 41.93 15.94 28.95 24.7"/>
      <polyline class="cls-2" points="28.88 24.62 21.52 22.33 33.63 39.92 28.88 24.62"/>
      <polygon class="cls-5" points="28.88 24.62 21.52 22.33 33.63 39.92 28.88 24.62"/>
      <polyline class="cls-2" points="21.23 30.11 21.3 22.47 33.42 40.06 21.23 30.11"/>
      <polygon class="cls-5" points="21.23 30.11 21.3 22.47 33.42 40.06 21.23 30.11"/>
      <polyline class="cls-2" points="21.26 30.18 21.26 22.47 8.06 39.26 21.26 30.18"/>
      <polygon class="cls-5" points="21.26 30.18 21.26 22.47 8.06 39.26 21.26 30.18"/>
      <polyline class="cls-2" points="13.56 24.13 21.05 22.31 7.85 39.1 13.56 24.13"/>
      <polygon class="cls-5" points="13.56 24.13 21.05 22.31 7.85 39.1 13.56 24.13"/>
      <polyline class="cls-2" points="13.63 24.12 21.05 22.29 0.65 15.95 13.63 24.12"/>
      <polygon class="cls-5" points="13.63 24.12 21.05 22.29 0.65 15.95 13.63 24.12"/>
      <polyline class="cls-2" points="16.27 15.69 21.12 22.04 0.73 15.7 16.27 15.69"/>
      <polygon class="cls-5" points="16.27 15.69 21.12 22.04 0.73 15.7 16.27 15.69"/>
      <polyline class="cls-6" points="16.39 15.95 21.16 22.01 21.16 0.65 16.39 15.95"/>
      <polyline class="cls-7" points="26.18 15.95 21.42 22.01 21.42 0.65 26.18 15.95"/>
      <polyline class="cls-6" points="26.36 15.68 21.45 22.04 41.85 15.69 26.36 15.68"/>
      <polyline class="cls-7" points="28.95 24.7 21.53 22.28 41.93 15.94 28.95 24.7"/>
      <polyline class="cls-6" points="28.88 24.62 21.52 22.33 33.63 39.92 28.88 24.62"/>
      <polyline class="cls-7" points="21.23 30.11 21.3 22.47 33.42 40.06 21.23 30.11"/>
      <polyline class="cls-6" points="21.26 30.18 21.26 22.47 8.06 39.26 21.26 30.18"/>
      <polyline class="cls-7" points="13.56 24.13 21.05 22.31 7.85 39.1 13.56 24.13"/>
      <polyline class="cls-6" points="13.63 24.12 21.05 22.29 0.65 15.95 13.63 24.12"/>
      <polyline class="cls-7" points="16.27 15.69 21.12 22.04 0.73 15.7 16.27 15.69"/>
    </g>
  </g>
</svg>
